<?xml version="1.0" encoding="UTF-8"?>
<svg id="Layer_1" data-name="Layer 1" xmlns="http://www.w3.org/2000/svg" viewBox="0 0 1600 1550">
  <defs>
    <style>
      .cls-1 {
        fill: #fff;
      }
    </style>
  </defs>
  <path class="cls-1" d="M100,450c-55,0-100,45-100,100h0v900h0c0,55,45,100,100,100h1400c55,0,100-45,100-100h0v-900h0c0-55-45-100-100-100H100ZM1360,1350H240c-22.09,0-40-17.91-40-40v-620c0-22.09,17.91-40,40-40h1120c22.09,0,40,17.91,40,40v620c0,22.09-17.91,40-40,40Z"/>
  <path class="cls-1" d="M1185.63,452.11c7.9,26.34,36.87,47.89,64.37,47.89h100c27.5,0,43.53-21.55,35.63-47.89l-121.27-404.22c-7.9-26.34-36.87-47.89-64.37-47.89H400c-27.5,0-56.47,21.55-64.37,47.89l-121.27,404.22c-7.9,26.34,8.13,47.89,35.63,47.89h100c27.5,0,56.47-21.55,64.37-47.89l64.94-216.48c6.34-21.15,25.81-35.63,47.89-35.63h545.6c22.08,0,41.55,14.48,47.89,35.63l64.94,216.48h0Z"/>
  <rect class="cls-1" x="300" y="825" width="175" height="350" rx="50" ry="50"/>
</svg>