<?xml version="1.0" encoding="UTF-8"?>
<svg id="Layer_1" data-name="Layer 1" xmlns="http://www.w3.org/2000/svg" viewBox="0 0 1500 1700">
  <defs>
    <style>
      .cls-1 {
        fill: #fff;
      }
    </style>
  </defs>
  <path class="cls-1" d="M200,1462.5V350c0-27.61-22.39-50-50-50H50c-27.61,0-50,22.39-50,50v1275c0,41.42,33.58,75,75,75h675c27.61,0,50-22.39,50-50v-100c0-27.61-22.39-50-50-50H237.5c-20.71,0-37.5-16.79-37.5-37.5Z"/>
  <g>
    <path class="cls-1" d="M300,700v125c0,27.61,22.39,50,50,50h100c27.61,0,50-22.39,50-50V250c0-27.61,22.39-50,50-50h200c27.61,0,50-22.39,50-50V50c0-27.61-22.39-50-50-50H50C22.39,0,0,22.39,0,50v100c0,27.61,22.39,50,50,50h200c27.61,0,50,22.39,50,50v450Z"/>
    <path class="cls-1" d="M1425,0h-475c-27.61,0-50,22.39-50,50v100c0,27.61,22.39,50,50,50h300c27.61,0,50,22.39,50,50v900c0,27.61-22.39,50-50,50h-700c-27.61,0-50-22.39-50-50v-125c0-27.61-22.39-50-50-50h-100c-27.61,0-50,22.39-50,50v300c0,41.42,33.58,75,75,75h482.97c17.16,0,33.11,8.8,42.27,23.3l182.48,253.4c9.16,14.5,25.12,23.3,42.27,23.3h202.08c19.69,0,31.65-21.7,21.14-38.35l-163.47-223.3c-10.51-16.65,1.45-38.35,21.14-38.35h219.12c41.42,0,75-33.58,75-75V75c0-41.42-33.58-75-75-75Z"/>
  </g>
  <path class="cls-1" d="M1000,300h-150c-27.61,0-50,22.39-50,50v100c0,27.61,22.39,50,50,50h100c27.61,0,50,22.39,50,50v100c0,13.81-11.19,25-25,25h-150c-13.81,0-25-11.19-25-25v-100c0-27.61-22.39-50-50-50h-100c-27.61,0-50,22.39-50,50v500c0,27.61,22.39,50,50,50h100c27.61,0,50-22.39,50-50v-125c0-27.61,22.39-50,50-50h100c27.61,0,50,22.39,50,50v125c0,27.61,22.39,50,50,50h100c27.61,0,50-22.39,50-50V400c0-55.23-44.77-100-100-100h-100Z"/>
</svg>